<?xml version="1.0" standalone="no"?>
<!DOCTYPE svg PUBLIC "-//W3C//DTD SVG 20010904//EN"
 "http://www.w3.org/TR/2001/REC-SVG-20010904/DTD/svg10.dtd">
<svg version="1.0" xmlns="http://www.w3.org/2000/svg"
 width="255.000000pt" height="154.000000pt" viewBox="0 0 255.000000 154.000000"
 preserveAspectRatio="xMidYMid meet">

<g transform="translate(0.000000,154.000000) scale(0.100000,-0.100000)"
fill="#2E4C6D" stroke="none">
<path d="M494 1496 c-6 -15 4 -36 109 -221 60 -105 97 -197 97 -240 0 -35 -10
-31 -52 25 -20 26 -52 59 -70 73 -52 39 -439 233 -476 239 -38 5 -56 -11 -67
-60 -11 -53 9 -88 64 -108 216 -79 534 -218 580 -253 17 -13 22 -23 16 -39 -8
-27 -31 -28 -70 -2 -16 11 -42 20 -56 20 -45 0 -215 -114 -280 -188 -27 -30
-29 -36 -16 -49 21 -21 86 -9 134 25 101 69 122 80 169 96 87 28 113 0 59 -64
-35 -42 -75 -148 -75 -199 0 -39 21 -64 51 -59 31 4 48 51 48 136 1 57 4 65
36 100 l34 37 1 -33 c0 -41 -56 -273 -110 -450 -41 -136 -50 -221 -27 -240 39
-33 123 -19 132 22 2 11 9 79 15 151 12 143 42 328 62 390 11 34 63 85 87 85
14 0 -9 -190 -33 -287 -31 -120 -32 -153 -8 -182 l17 -22 140 21 c177 27 297
57 338 84 45 31 69 78 74 150 7 81 -9 100 -93 111 -109 13 -134 36 -61 56 23
6 52 15 64 20 51 19 75 137 34 170 -23 19 -201 35 -315 27 l-65 -4 -20 46
c-33 77 -35 96 -12 119 26 26 70 27 176 5 42 -9 86 -13 98 -10 24 7 87 80 87
102 0 7 -12 22 -27 31 -22 14 -48 18 -128 18 -140 -1 -178 -14 -248 -86 -32
-32 -62 -59 -66 -59 -13 0 -30 80 -41 193 -15 148 -68 231 -177 280 -81 35
-121 43 -129 23z m770 -727 c25 -23 -60 -86 -141 -104 -41 -8 -63 -39 -63 -86
0 -54 25 -75 119 -106 47 -16 89 -36 95 -45 25 -41 -64 -78 -229 -97 -44 -4
-84 -5 -89 0 -11 10 7 98 51 249 18 63 33 132 33 152 0 40 6 44 75 50 47 5
139 -3 149 -13z"/>
<path d="M1505 953 c-11 -3 -25 -9 -31 -14 -18 -15 -23 -57 -9 -76 11 -15 17
-15 56 -4 51 15 59 24 59 69 0 29 -3 32 -27 31 -16 -1 -37 -4 -48 -6z"/>
<path d="M1865 849 c-60 -5 -144 -12 -185 -16 l-75 -8 -3 -47 -3 -48 115 0
c86 0 116 -3 116 -12 -1 -43 -78 -159 -195 -293 -56 -64 -65 -80 -65 -113 0
-39 22 -125 39 -151 10 -16 31 -4 206 123 120 87 214 140 313 176 l83 30 10
-28 c6 -15 16 -55 22 -89 6 -35 14 -63 18 -63 14 0 20 56 13 127 l-6 73 35 15
c20 8 80 19 134 23 92 8 96 9 68 21 -19 9 -73 13 -147 13 -75 0 -118 3 -118
10 0 10 -108 259 -115 267 -2 2 -20 0 -40 -3 -29 -6 -35 -11 -35 -32 0 -14
-20 -77 -45 -140 -25 -62 -45 -116 -45 -119 0 -3 29 -5 65 -5 l65 0 0 74 c0
89 9 138 24 133 12 -4 75 -161 76 -188 0 -11 -28 -26 -87 -49 -103 -38 -226
-98 -302 -147 l-54 -34 7 28 c10 40 42 92 144 234 85 119 90 128 93 183 3 34
0 60 -6 61 -5 1 -59 -2 -120 -6z"/>
<path d="M1469 820 c-14 -8 -18 -37 -23 -167 -4 -87 -12 -217 -17 -289 -12
-141 -7 -167 30 -177 17 -4 23 2 31 31 29 103 99 587 86 599 -10 11 -92 13
-107 3z"/>
</g>
</svg>
