<?xml version="1.0" standalone="no"?>
<!DOCTYPE svg PUBLIC "-//W3C//DTD SVG 20010904//EN"
 "http://www.w3.org/TR/2001/REC-SVG-20010904/DTD/svg10.dtd">
<svg version="1.0" xmlns="http://www.w3.org/2000/svg"
 width="132.000000pt" height="143.000000pt" viewBox="0 0 132.000000 143.000000"
 preserveAspectRatio="xMidYMid meet">

<g transform="translate(0.000000,143.000000) scale(0.100000,-0.100000)"
fill="#000000" stroke="none">
<path d="M490 1422 c0 -4 28 -54 61 -112 115 -197 161 -305 145 -346 -5 -13
-12 -9 -34 22 -49 67 -95 99 -289 200 -195 102 -281 138 -307 128 -21 -8 -39
-68 -31 -103 9 -41 29 -55 120 -86 189 -65 531 -224 542 -251 3 -9 -2 -23 -11
-32 -16 -16 -19 -16 -56 6 -21 12 -48 22 -60 22 -68 0 -326 -196 -304 -232 4
-6 28 -9 58 -6 43 4 65 13 119 52 64 46 153 86 189 86 10 0 22 -9 28 -20 9
-16 5 -26 -24 -57 -35 -39 -76 -149 -76 -203 0 -32 32 -65 55 -56 25 9 45 70
45 134 0 45 5 67 23 92 30 45 47 49 47 13 0 -37 -59 -276 -110 -452 -22 -74
-40 -154 -40 -177 l0 -44 74 0 74 0 7 103 c7 108 36 316 55 405 14 64 47 105
111 138 86 43 96 85 50 208 -20 54 -21 60 -6 82 14 21 23 24 78 24 34 0 89 -7
121 -14 36 -9 68 -11 81 -6 27 10 85 79 85 101 0 58 -242 64 -352 8 -20 -10
-51 -39 -69 -64 -18 -25 -38 -45 -45 -45 -15 0 -30 67 -44 200 -16 139 -62
214 -162 266 -46 23 -148 35 -148 16z"/>
</g>
</svg>
